PathFileType	4	(X/Y/Z)	./resultDataOpenSim/trcMotMarkerGrf/sub06/qtm-15-04.trc
DataRate	CameraRate	NumFrames	NumMarkers	Units	OrigDataRate	OrigDataStartFrame	OrigNumFrames
250.000000	250.000000	8	24	m	250.000000	67	533
Frame#	Time	L.Toe.Tip			R.Toe.Tip			L.Ankle.Lat			R.Ankle.Lat			L.Ankle.Med			R.Ankle.Med			L.Heel			R.Heel			L.Knee.Lat			R.Knee.Lat			L.Knee.Med			R.Knee.Med			L.Thigh.Upper			R.Thigh.Upper			L.ASIS			R.ASIS			V.Sacral			L.Acromium			R.Acromium			C7			L.Elbow			R.Elbow			L.Wrist.Lat			R.Wrist.Lat
		X1	Y1	Z1	X2	Y2	Z2	X3	Y3	Z3	X4	Y4	Z4	X5	Y5	Z5	X6	Y6	Z6	X7	Y7	Z7	X8	Y8	Z8	X9	Y9	Z9	X10	Y10	Z10	X11	Y11	Z11	X12	Y12	Z12	X13	Y13	Z13	X14	Y14	Z14	X15	Y15	Z15	X16	Y16	Z16	X17	Y17	Z17	X18	Y18	Z18	X19	Y19	Z19	X20	Y20	Z20	X21	Y21	Z21	X22	Y22	Z22	X23	Y23	Z23	X24	Y24	Z24

67	0.264	-1.4006479	0.067941499	-0.094828763	-0.72995095	0.036436839	0.049400768	-1.3858399	0.19872838	-0.12415347	-0.8624672	0.061378903	0.072424546	-1.3630945	0.19863441	-0.043579794	-0.84770959	0.079038961	-0.015344422	-1.4234467	0.25638845	-0.068032442	-0.9210788	0.03709934	0.011391042	-1.0463104	0.37450773	-0.15612761	-0.82044592	0.44517792	0.098955617	-1.0448246	0.3661752	-0.033411137	-0.86537102	0.42949654	-0.021352052	-1.0266068	0.76653311	-0.16745325	-0.97333578	0.78768292	0.17303395	-0.94390888	0.81770096	-0.13291576	-0.90156299	0.84082908	0.10321251	-1.1058272	0.90449726	0.017902167	-0.98010959	1.3100717	-0.18072619	-0.97656512	1.2891695	0.18374596	-1.0566423	1.3420099	0.0020954007	-0.98208187	0.98539735	-0.23809654	-1.0985942	0.99598622	0.22730072	-0.78717634	0.83290493	-0.22165025	-1.0288727	0.77224603	0.27692633
68	0.268	-1.3877147	0.070447633	-0.095348965	-0.72993937	0.036357799	0.04943901	-1.3739573	0.20143634	-0.12413429	-0.86248798	0.061376848	0.072394326	-1.3513648	0.20132263	-0.043320433	-0.84755359	0.079138936	-0.015243976	-1.4121985	0.258958	-0.068519012	-0.92110921	0.037107545	0.011404659	-1.0339941	0.37519318	-0.15693932	-0.81820671	0.44469162	0.099812137	-1.0326837	0.36706741	-0.03389269	-0.86260514	0.42971819	-0.020734466	-1.0198374	0.76780691	-0.16710586	-0.96756062	0.78860452	0.17332419	-0.93736148	0.81897308	-0.13229452	-0.89541285	0.84168888	0.10397206	-1.0988218	0.90584692	0.018850959	-0.97422491	1.3111848	-0.18064805	-0.97010269	1.2904792	0.18393119	-1.0503129	1.343445	0.0024161564	-0.97730709	0.98654686	-0.23738581	-1.0908851	0.99673726	0.22824088	-0.78433668	0.83173915	-0.22224588	-1.019744	0.77331066	0.27766877
69	0.272	-1.3741885	0.072697429	-0.095721784	-0.72996635	0.03629798	0.049520367	-1.3619342	0.20395706	-0.12402977	-0.86254652	0.061353647	0.072417553	-1.3394309	0.20382875	-0.043009029	-0.84745137	0.079242585	-0.015116595	-1.4006483	0.2613655	-0.069362764	-0.92115354	0.037116981	0.011430286	-1.0217091	0.37605598	-0.15767185	-0.81624582	0.44419756	0.10068286	-1.0205077	0.36814675	-0.034359663	-0.86000871	0.4300198	-0.020106867	-1.013183	0.7691195	-0.1669114	-0.96179086	0.78963773	0.17372397	-0.93097194	0.82030796	-0.13187029	-0.88932071	0.842575	0.10473312	-1.0917207	0.9071166	0.019816176	-0.9683839	1.3123466	-0.18057503	-0.963683	1.29185	0.18410711	-1.0440098	1.34491	0.0027117921	-0.97233918	0.98774136	-0.23634456	-1.0831909	0.99754463	0.2291628	-0.78156802	0.83068027	-0.22281887	-1.010325	0.77454835	0.27839493
70	0.276	-1.360228	0.07467964	-0.096009683	-0.7300309	0.036254987	0.049632914	-1.3496181	0.20616688	-0.12384757	-0.8627187	0.061297878	0.072479314	-1.32746	0.20602502	-0.042611521	-0.84740953	0.079344538	-0.014961782	-1.3887447	0.26336125	-0.069859061	-0.92121094	0.037129845	0.011466952	-1.0094521	0.3770876	-0.15834435	-0.814381	0.44373087	0.10150464	-1.008192	0.36939603	-0.034812776	-0.85757117	0.43038046	-0.019448972	-1.0066147	0.77048758	-0.16673545	-0.95586648	0.79079871	0.17427621	-0.92468547	0.82170549	-0.13156251	-0.88329588	0.84348856	0.10549957	-1.0849623	0.90840968	0.020662584	-0.96258183	1.313555	-0.18050752	-0.95732077	1.2932856	0.18427449	-1.0377413	1.3464015	0.0029751495	-0.96720995	0.98901229	-0.23498663	-1.0755167	0.99841562	0.23008231	-0.77889371	0.82972106	-0.22339235	-1.0006805	0.77594806	0.27911275
71	0.28	-1.3459813	0.076379874	-0.096289919	-0.73013038	0.036227795	0.049757715	-1.3369589	0.20802793	-0.12358356	-0.86310499	0.061194487	0.072555805	-1.3157415	0.20782209	-0.042059873	-0.84743153	0.079438343	-0.014788549	-1.3765513	0.26488152	-0.069797922	-0.92127853	0.037148521	0.011508481	-0.99723221	0.37827689	-0.15896474	-0.81252886	0.44330261	0.10223049	-0.99559846	0.37080319	-0.03524637	-0.85536646	0.43077146	-0.018714704	-1.0000568	0.77192185	-0.16634394	-0.94970467	0.7920421	0.17496226	-0.9184376	0.82315774	-0.13127445	-0.87733909	0.84443353	0.10627331	-1.0788775	0.90982791	0.020915503	-0.95681542	1.3148151	-0.18044635	-0.9510247	1.2947907	0.18443329	-1.0315153	1.3479256	0.0032018727	-0.96213392	0.99038247	-0.23361526	-1.0678358	0.99934635	0.23101349	-0.77632113	0.82885783	-0.22397947	-0.99090649	0.77748266	0.27981312
72	0.284	-1.331531	0.077801431	-0.096595543	-0.73025917	0.036215043	0.049884427	-1.3240336	0.20957381	-0.12324473	-0.86373886	0.061045529	0.072625291	-1.3042096	0.20926028	-0.041404489	-0.84749373	0.07952046	-0.014611864	-1.3642205	0.26604286	-0.06948082	-0.92135208	0.03717558	0.011547259	-0.98506145	0.3796135	-0.15952452	-0.81065072	0.44292144	0.10282808	-0.98265199	0.37234674	-0.035673675	-0.85338918	0.43116263	-0.017949399	-0.99345336	0.77341127	-0.16565024	-0.94330423	0.79331885	0.17574457	-0.91218887	0.82465227	-0.13094926	-0.87144823	0.84541166	0.10705497	-1.0735866	0.9114616	0.019877959	-0.95108098	1.3161336	-0.18038704	-0.94478542	1.2963639	0.18458026	-1.0253356	1.3494795	0.0033961953	-0.95730319	0.9918499	-0.23255968	-1.0600864	1.0003268	0.23198071	-0.77384657	0.82809411	-0.22457812	-0.98106474	0.77912729	0.28047574
73	0.288	-1.3169057	0.078971039	-0.096920331	-0.73040842	0.036214142	0.050013465	-1.3109455	0.21084499	-0.12288082	-0.86448831	0.060892554	0.072684662	-1.2920573	0.21053041	-0.040918689	-0.84755703	0.079592982	-0.014445693	-1.3518785	0.26695949	-0.069207015	-0.92142651	0.03721189	0.011577658	-0.97289778	0.38108936	-0.16000785	-0.80878999	0.44260421	0.10331741	-0.96953425	0.37399864	-0.036089438	-0.85148059	0.43153905	-0.017313705	-0.98682231	0.7749266	-0.16485853	-0.93687802	0.79460036	0.1765485	-0.9059341	0.82617881	-0.13057677	-0.86562562	0.84643253	0.1078509	-1.0688998	0.91332535	0.017303454	-0.94537344	1.3175148	-0.18032052	-0.93858642	1.2980027	0.18471464	-1.0192014	1.3510448	0.0035684691	-0.9527152	0.99339726	-0.23186023	-1.0522085	1.0013432	0.23300185	-0.77146229	0.82743575	-0.22517965	-0.97118037	0.78086929	0.28108996
74	0.292	-1.3021111	0.079923226	-0.09726466	-0.73056768	0.036221516	0.050147144	-1.2977133	0.21186264	-0.12257122	-0.86513864	0.060789388	0.072750551	-1.2783315	0.21181627	-0.040894883	-0.84760195	0.079662512	-0.014296373	-1.3395461	0.26764047	-0.069023575	-0.92149695	0.037255419	0.011598296	-0.9606566	0.38270069	-0.16040017	-0.80704143	0.442365	0.10376092	-0.95658366	0.37573999	-0.036455892	-0.84951964	0.43189717	-0.01688828	-0.98021988	0.77645991	-0.16424785	-0.93085568	0.79586084	0.17725175	-0.89969709	0.8277348	-0.13017482	-0.8598752	0.84750668	0.10867212	-1.0642954	0.91529015	0.014118437	-0.93968487	1.3189569	-0.18024274	-0.93241508	1.2997032	0.18483561	-1.0131101	1.3525998	0.0037242012	-0.94825139	0.99500995	-0.23133415	-1.0441985	1.0023904	0.23407317	-0.76916258	0.82688472	-0.22578052	-0.96125365	0.78270556	0.28165839
